<svg xmlns="http://www.w3.org/2000/svg" viewBox="0 0 900 540" role="img" aria-labelledby="title desc">
  <title id="title">Ilustracion de gestion de eventos sociales</title>
  <desc id="desc">Calendario, tarjetas de asistentes y elementos de organizacion en estilo pastel.</desc>
  <defs>
    <linearGradient id="bg" x1="0" x2="1" y1="0" y2="1">
      <stop offset="0" stop-color="#c1e1f0"/>
      <stop offset="0.52" stop-color="#d4b5d1"/>
      <stop offset="1" stop-color="#e2cad4"/>
    </linearGradient>
    <filter id="shadow" x="-20%" y="-20%" width="140%" height="140%">
      <feDropShadow dx="0" dy="18" stdDeviation="18" flood-color="#382d44" flood-opacity=".16"/>
    </filter>
  </defs>
  <rect width="900" height="540" rx="28" fill="url(#bg)"/>
  <rect x="48" y="70" width="120" height="120" rx="26" fill="#fff" opacity=".32"/>
  <rect x="724" y="346" width="118" height="118" rx="26" fill="#fff" opacity=".34"/>
  <g filter="url(#shadow)">
    <rect x="112" y="102" width="330" height="338" rx="30" fill="#fff"/>
    <rect x="112" y="102" width="330" height="88" rx="30" fill="#b59eb7"/>
    <rect x="112" y="154" width="330" height="36" fill="#b59eb7"/>
    <circle cx="182" cy="142" r="14" fill="#fff"/>
    <circle cx="260" cy="142" r="14" fill="#fff"/>
    <circle cx="338" cy="142" r="14" fill="#fff"/>
    <g fill="#f7edf5">
      <rect x="150" y="222" width="56" height="48" rx="10"/>
      <rect x="236" y="222" width="56" height="48" rx="10"/>
      <rect x="322" y="222" width="56" height="48" rx="10"/>
      <rect x="150" y="300" width="56" height="48" rx="10"/>
      <rect x="236" y="300" width="56" height="48" rx="10"/>
      <rect x="322" y="300" width="56" height="48" rx="10"/>
    </g>
    <rect x="236" y="300" width="56" height="48" rx="10" fill="#a6c3d9"/>
    <rect x="322" y="222" width="56" height="48" rx="10" fill="#e2cad4"/>
  </g>
  <g filter="url(#shadow)">
    <rect x="502" y="116" width="258" height="104" rx="24" fill="#2e2638"/>
    <circle cx="554" cy="168" r="28" fill="#c1e1f0"/>
    <rect x="604" y="146" width="112" height="16" rx="8" fill="#fff" opacity=".7"/>
    <rect x="604" y="176" width="76" height="14" rx="7" fill="#fff" opacity=".35"/>
  </g>
  <g filter="url(#shadow)">
    <rect x="518" y="258" width="230" height="134" rx="24" fill="#fff"/>
    <path d="M560 334h54l34-42 30 28h32" fill="none" stroke="#7b5b87" stroke-width="12" stroke-linecap="round" stroke-linejoin="round"/>
    <circle cx="560" cy="334" r="11" fill="#a6c3d9"/>
    <circle cx="648" cy="292" r="11" fill="#d4b5d1"/>
    <circle cx="710" cy="320" r="11" fill="#c1e1f0"/>
    <rect x="558" y="288" width="92" height="14" rx="7" fill="#b59eb7" opacity=".36"/>
  </g>
</svg>
