<svg xmlns="http://www.w3.org/2000/svg" viewBox="0 0 900 540" role="img" aria-labelledby="title desc">
  <title id="title">Ilustracion de medicamentos y seguimiento farmaceutico</title>
  <desc id="desc">Blisters, capsulas y una linea de monitorizacion en estilo pastel.</desc>
  <defs>
    <linearGradient id="bg" x1="0" x2="1" y1="0" y2="1">
      <stop offset="0" stop-color="#e2cad4"/>
      <stop offset="0.48" stop-color="#d4b5d1"/>
      <stop offset="1" stop-color="#c1e1f0"/>
    </linearGradient>
    <filter id="shadow" x="-20%" y="-20%" width="140%" height="140%">
      <feDropShadow dx="0" dy="18" stdDeviation="18" flood-color="#382d44" flood-opacity=".16"/>
    </filter>
  </defs>
  <rect width="900" height="540" rx="28" fill="url(#bg)"/>
  <circle cx="720" cy="118" r="78" fill="#ffffff" opacity=".42"/>
  <circle cx="146" cy="420" r="92" fill="#ffffff" opacity=".3"/>
  <g filter="url(#shadow)">
    <rect x="94" y="112" width="310" height="260" rx="30" fill="#fff"/>
    <rect x="128" y="148" width="96" height="74" rx="18" fill="#f7edf5"/>
    <rect x="244" y="148" width="96" height="74" rx="18" fill="#f7edf5"/>
    <rect x="128" y="246" width="96" height="74" rx="18" fill="#f7edf5"/>
    <rect x="244" y="246" width="96" height="74" rx="18" fill="#f7edf5"/>
    <circle cx="176" cy="185" r="26" fill="#a6c3d9"/>
    <circle cx="292" cy="185" r="26" fill="#b59eb7"/>
    <circle cx="176" cy="283" r="26" fill="#d4b5d1"/>
    <circle cx="292" cy="283" r="26" fill="#c1e1f0"/>
  </g>
  <g filter="url(#shadow)">
    <rect x="484" y="128" width="286" height="244" rx="30" fill="#2e2638"/>
    <path d="M532 300c52-114 92 8 136-84 18-38 42-56 74-44" fill="none" stroke="#c1e1f0" stroke-width="16" stroke-linecap="round"/>
    <circle cx="532" cy="300" r="13" fill="#e2cad4"/>
    <circle cx="668" cy="216" r="13" fill="#e2cad4"/>
    <circle cx="742" cy="172" r="13" fill="#e2cad4"/>
    <rect x="532" y="326" width="168" height="14" rx="7" fill="#ffffff" opacity=".35"/>
    <rect x="532" y="166" width="86" height="16" rx="8" fill="#ffffff" opacity=".7"/>
  </g>
  <g transform="translate(362 334) rotate(-18)" filter="url(#shadow)">
    <rect x="0" y="0" width="216" height="78" rx="39" fill="#fff"/>
    <path d="M108 6v66" stroke="#d4b5d1" stroke-width="8"/>
    <rect x="20" y="22" width="78" height="34" rx="17" fill="#a6c3d9"/>
    <rect x="118" y="22" width="78" height="34" rx="17" fill="#e2cad4"/>
  </g>
</svg>
